<svg xmlns="http://www.w3.org/2000/svg" version="1.1" xmlns:xlink="http://www.w3.org/1999/xlink" xmlns:svgjs="http://svgjs.dev/svgjs" width="1000" height="184" viewBox="0 0 1000 184"><g transform="matrix(1,0,0,1,-0.6060606060606233,0.16242495308672744)"><svg viewBox="0 0 396 73" data-background-color="#aca7cb" preserveAspectRatio="xMidYMid meet" height="184" width="1000" xmlns="http://www.w3.org/2000/svg" xmlns:xlink="http://www.w3.org/1999/xlink"><g id="tight-bounds" transform="matrix(1,0,0,1,0.2400000000000091,-0.0644403346485376)"><svg viewBox="0 0 395.52 73.12887857136312" height="73.12887857136312" width="395.52"><g><svg viewBox="0 0 595.7852858005717 110.15652765957445" height="73.12887857136312" width="395.52"><g transform="matrix(1,0,0,1,0,34.0399659574468)"><svg viewBox="0 0 395.5199999999999 42.076595744680844" height="42.076595744680844" width="395.5199999999999"><g id="textblocktransform"><svg viewBox="0 0 395.5199999999999 42.076595744680844" height="42.076595744680844" width="395.5199999999999" id="textblock"><g><svg viewBox="0 0 395.5199999999999 42.076595744680844" height="42.076595744680844" width="395.5199999999999"><g transform="matrix(1,0,0,1,0,0)"><svg width="395.5199999999999" viewBox="2 -32.75 312.5199890136719 33.25" height="42.076595744680844" data-palette-color="#000000"><path d="M28.65-31.05L28.65 0 18.1 0 18.1-10.95 12.7-10.95 12.7 0 2 0 2-31.05 12.7-31.05 12.7-19.45 18.1-19.45 18.1-31.05 28.65-31.05ZM31.65-15.73Q31.65-24.05 34.97-27.8 38.3-31.55 45.92-31.55 53.55-31.55 56.82-27.85 60.1-24.15 60.1-15.83 60.1-7.5 56.72-3.5 53.35 0.5 45.82 0.5 38.3 0.5 34.97-3.45 31.65-7.4 31.65-15.73ZM48.7-21.68Q48.05-22.95 45.9-22.95 43.75-22.95 43.15-21.7 42.55-20.45 42.55-16.35L42.55-16.35 42.55-14.15Q42.55-9.95 43.2-8.7 43.85-7.45 46.05-7.45 48.25-7.45 48.8-8.65 49.35-9.85 49.35-14L49.35-14 49.35-16.3Q49.35-20.4 48.7-21.68ZM87.65-21.05L87.65-21.05Q87.65-18.05 86.67-16.28 85.7-14.5 83.65-13.15L83.65-13.15 88.3 0 77.25 0 74.15-10.7 73.34-10.7 73.34 0 63.1 0 63.1-31.05 76.34-31.05Q82.15-31.05 84.9-28.63 87.65-26.2 87.65-21.05ZM74.4-16.8Q75.55-16.8 76.02-17.48 76.5-18.15 76.5-19.85 76.5-21.55 76-22.2 75.5-22.85 74.45-22.85L74.45-22.85 73.15-22.85 73.15-16.8 74.4-16.8ZM117.59-31.05L117.59 0 107.39 0 101.09-12.25 100.74-12.25 100.74 0 91.24 0 91.24-31.05 101.79-31.05 107.69-18.4 107.99-18.4 107.99-31.05 117.59-31.05ZM142.09-7.6L141.39 0 121.59 0 121.59-31.05 142.09-31.05 141.39-22.8 132.29-22.8 132.29-19.05 140.24-19.05 140.24-11.85 132.29-11.85 132.29-7.6 142.09-7.6ZM166.94-31.05L166.34-22.6 159.74-22.6 159.74 0 149.09 0 149.09-22.6 142.14-22.6 142.59-31.05 166.94-31.05ZM168.69-28.83Q168.69-30.8 169.94-31.78 171.19-32.75 173.86-32.75 176.54-32.75 177.69-31.63 178.84-30.5 178.84-27.85 178.84-25.2 177.21-23.28 175.59-21.35 172.69-19.6L172.69-19.6 168.34-20.25 171.79-24.9Q170.14-25.25 169.41-26.05 168.69-26.85 168.69-28.83ZM179.53-21.1Q179.53-26.05 182.53-28.8 185.53-31.55 190.86-31.55 196.18-31.55 201.83-30.55L201.83-30.55 200.68-21.75Q194.43-23 192.48-23 190.53-23 190.53-21.8L190.53-21.8Q190.53-21.35 190.83-21.18 191.13-21 191.28-20.9 191.43-20.8 191.86-20.65 192.28-20.5 192.56-20.38 192.83-20.25 194.36-19.63 195.88-19 196.66-18.63 197.43-18.25 198.78-17.4L198.78-17.4Q202.68-14.85 202.68-9.9 202.68-4.95 199.73-2.23 196.78 0.5 191.26 0.5 185.73 0.5 180.43-0.85L180.43-0.85 181.13-9.3Q187.83-7.6 190.18-7.6L190.18-7.6Q191.73-7.6 191.73-8.7L191.73-8.7Q191.73-9.2 191.36-9.5 190.98-9.8 190.26-10.15 189.53-10.5 188.13-11.08 186.73-11.65 185.78-12.08 184.83-12.5 183.53-13.4L183.53-13.4Q179.53-16.15 179.53-21.1ZM241.03-31.05L241.03 0 230.83 0 224.53-12.25 224.18-12.25 224.18 0 214.68 0 214.68-31.05 225.23-31.05 231.13-18.4 231.43-18.4 231.43-31.05 241.03-31.05ZM265.53-7.6L264.83 0 245.03 0 245.03-31.05 265.53-31.05 264.83-22.8 255.73-22.8 255.73-19.05 263.68-19.05 263.68-11.85 255.73-11.85 255.73-7.6 265.53-7.6ZM266.57-21.1Q266.57-26.05 269.57-28.8 272.57-31.55 277.9-31.55 283.22-31.55 288.87-30.55L288.87-30.55 287.72-21.75Q281.47-23 279.52-23 277.57-23 277.57-21.8L277.57-21.8Q277.57-21.35 277.87-21.18 278.17-21 278.32-20.9 278.47-20.8 278.9-20.65 279.32-20.5 279.6-20.38 279.87-20.25 281.4-19.63 282.92-19 283.7-18.63 284.47-18.25 285.82-17.4L285.82-17.4Q289.72-14.85 289.72-9.9 289.72-4.95 286.77-2.23 283.82 0.5 278.3 0.5 272.77 0.5 267.47-0.85L267.47-0.85 268.17-9.3Q274.87-7.6 277.22-7.6L277.22-7.6Q278.77-7.6 278.77-8.7L278.77-8.7Q278.77-9.2 278.4-9.5 278.02-9.8 277.3-10.15 276.57-10.5 275.17-11.08 273.77-11.65 272.82-12.08 271.87-12.5 270.57-13.4L270.57-13.4Q266.57-16.15 266.57-21.1ZM314.52-31.05L313.92-22.6 307.32-22.6 307.32 0 296.67 0 296.67-22.6 289.72-22.6 290.17-31.05 314.52-31.05Z" opacity="1" transform="matrix(1,0,0,1,0,0)" fill="#000000" class="wordmark-text-0" data-fill-palette-color="primary" id="text-0"></path></svg></g></svg></g></svg></g></svg></g><g transform="matrix(1,0,0,1,405.4532744170212,0)"><svg viewBox="0 0 190.3320113835505 110.15652765957445" height="110.15652765957445" width="190.3320113835505"><g><svg xmlns="http://www.w3.org/2000/svg" xmlns:xlink="http://www.w3.org/1999/xlink" version="1.1" x="0" y="0" viewBox="0.9010009765625 21.267333984375 97.75300598144531 56.57551574707031" enable-background="new 0 0 100 100" xml:space="preserve" height="110.15652765957445" width="190.3320113835505" class="icon-icon-0" data-fill-palette-color="accent" id="icon-0"><path fill-rule="evenodd" clip-rule="evenodd" d="M34.996 49.65c9.678 0.188 19.357 0.487 29.034 0.495 2.796 0.002 5.128 0.464 7.026 2.559 1.201 1.324 2.56 1.667 4.23 0.791 7.31-3.83 15.385-3.177 23.368-3.59-0.739 0.264-1.472 0.542-2.213 0.791-11.654 3.93-23.434 7.421-35.494 9.888-1.078 0.222-1.885 0.749-2.689 1.409-6.082 4.98-12.206 9.908-18.233 14.95-1.335 1.118-2.142 1.298-3.462-0.054-3.03-3.096-3.104-3.016-1.261-7.04 1.54-3.36 3.068-6.729 4.854-10.645-2.901 1.108-5.225 2.024-7.572 2.879-1.522 0.552-2.978 1.614-4.746 0.656-0.598-0.322-1.017 0.23-1.415 0.613-0.799 0.774-1.6 1.544-2.394 2.324-2.739 2.69-2.709 2.671-5.027-0.309-0.51-0.653-0.625-1.147-0.292-1.91 1.27-2.908 2.469-5.846 3.714-8.766 0.149-0.347 0.365-0.753 0.667-0.934 1.113-0.67 2.188-1.459 2.248-2.396 0.122-1.896-0.037-3.811-0.102-5.717-0.002-0.068-0.269-0.202-0.385-0.178-2.754 0.549-2.698-1.845-3.409-3.331-0.925-1.927-1.604-3.978-2.551-5.894-0.597-1.207-0.353-1.961 0.521-2.909 2.101-2.275 2.023-2.303 4.347-0.152 1.696 1.571 2.889 3.367 6.049 3.072 2.473-0.229 5.151 1.765 7.742 2.762 0.654 0.25 1.323 0.46 1.986 0.688 0.506-0.789-0.096-1.284-0.326-1.808-1.257-2.825-2.563-5.63-3.848-8.444-1.903-4.162-1.845-4.106 1.453-7.382 1.131-1.125 1.807-0.991 2.933-0.055 5.851 4.882 11.794 9.657 17.648 14.537 1.448 1.207 2.992 1.918 4.84 2.302 11.583 2.414 23.492 6.192 34.715 9.906 0.353 0.117 1.044 0.376 1.67 0.626-5.158-0.082-11.604-0.038-16.657-1.312-1.302-0.328-2.64-0.718-3.797-1.37-3.472-1.95-6.512-1.796-9.149 1.408-0.689 0.836-1.684 0.756-2.641 0.772-9.765 0.151-19.528 0.31-29.292 0.463-0.697 0.012-1.395 0.002-2.091 0.002C34.998 49.45 34.996 49.549 34.996 49.65z" fill="#544d4d" data-fill-palette-color="accent"></path><path fill-rule="evenodd" clip-rule="evenodd" d="M81.136 50.723c-2.348 0.582-4.686 1.196-7.042 1.732-1.627 0.37-2.02-1.098-3.199-2.206 3.659 0 6.896 0 10.135 0C81.063 50.409 81.101 50.565 81.136 50.723z" fill="#544d4d" data-fill-palette-color="accent"></path><path fill-rule="evenodd" clip-rule="evenodd" d="M81.136 48.587c-2.348-0.582-4.686-1.196-7.042-1.732-1.627-0.371-2.02 1.098-3.199 2.205 3.659 0 6.896 0 10.135 0C81.063 48.902 81.101 48.745 81.136 48.587z" fill="#544d4d" data-fill-palette-color="accent"></path><path fill-rule="evenodd" clip-rule="evenodd" d="M23.105 49.375c-6.808 0.841-13.553 0.229-20.307 0C9.567 49.375 16.336 49.375 23.105 49.375z" fill="#544d4d" data-fill-palette-color="accent"></path><path fill-rule="evenodd" clip-rule="evenodd" d="M22.862 52.027c-4.539 0-9.079 0-13.616 0 0-0.09 0-0.184 0-0.277 4.63 0 9.255 0 13.885 0C23.043 51.844 22.954 51.938 22.862 52.027z" fill="#544d4d" data-fill-palette-color="accent"></path><path fill-rule="evenodd" clip-rule="evenodd" d="M18.572 47.817c-5.892 0-11.783 0-17.671 0 0-0.091 0-0.185 0-0.277 6.008 0 12.011 0 18.02 0C18.805 47.633 18.689 47.727 18.572 47.817z" fill="#544d4d" data-fill-palette-color="accent"></path></svg></g></svg></g></svg></g><defs></defs></svg><rect width="395.52" height="73.12887857136312" fill="none" stroke="none" visibility="hidden"></rect></g></svg></g></svg>